<svg xmlns="http://www.w3.org/2000/svg" viewBox="0 0 100 100" width="512" height="512">
  <title>Groupe ix</title>
  <rect width="100" height="100" fill="#F4F4F0"/>
  <path fill="#000000" fill-rule="evenodd" d="M12 15L36 15L36 23L20 23L20 77L36 77L36 85L12 85ZM88 15L64 15L64 23L80 23L80 77L64 77L64 85L88 85Z"/>
  <path fill="#000000" d="M34.59 65.28V42.35H41.75V65.28ZM41.8 65.28 48.92 53.51 42.23 42.35H49.82L51.59 45.63Q52.53 47.42 53.31 49.24Q53.47 49.65 53.66 50.06Q53.82 49.67 54.01 49.26Q54.81 47.42 55.79 45.63L57.64 42.35H65.1L58.23 53.55L65.41 65.28H57.86L55.65 61.3Q54.66 59.52 53.84 57.65Q53.66 57.26 53.49 56.87Q53.33 57.26 53.17 57.65Q52.37 59.52 51.42 61.3L49.25 65.28Z"/>
  <path fill="#000000" d="M33.87 28.05L42.47 28.05L42.47 36.64L33.87 36.64Z"/>
</svg>
